<svg width="45" height="45" viewBox="0 0 45 45" fill="none" xmlns="http://www.w3.org/2000/svg">
<path fill-rule="evenodd" clip-rule="evenodd" d="M12.8571 20.8927H3.21429C1.43908 20.8927 0 19.4536 0 17.6784V8.03557C0 6.26039 1.43908 4.82129 3.21429 4.82129H12.8571C14.6323 4.82129 16.0714 6.26039 16.0714 8.03557V17.6784C16.0714 19.4536 14.6323 20.8927 12.8571 20.8927ZM25.7143 7.232C24.3829 7.232 23.3036 8.31133 23.3036 9.64272C23.3036 10.9741 24.3829 12.0534 25.7143 12.0534H28.125V34.4281C29.5745 33.0099 31.5585 32.1359 33.7465 32.1359C38.1864 32.1359 41.7857 35.735 41.7857 40.1749C41.7857 40.3584 41.7796 40.5404 41.7674 40.7207C43.7805 40.0148 45 37.9468 45 35.357C45 29.1639 39.9198 23.7166 32.9464 23.3258V20.2477C33.6555 20.6579 34.479 20.8927 35.3571 20.8927H38.5714C39.4589 20.8927 40.1786 20.1732 40.1786 19.2856V12.857C40.1786 11.9694 39.4589 11.2499 38.5714 11.2499H35.3571C34.479 11.2499 33.6555 11.4847 32.9464 11.8949V9.64272C32.9464 8.31133 31.8671 7.232 30.5357 7.232H25.7143ZM25.7474 40.982C25.721 40.7165 25.7074 40.4475 25.7074 40.1749C25.7074 38.7127 26.0978 37.3418 26.78 36.1606H26.5179C25.1865 36.1606 24.1071 35.0812 24.1071 33.7499V32.1427C24.1071 27.2609 20.1496 23.3034 15.2679 23.3034H8.83929C3.95749 23.3034 0 27.2609 0 32.1427V38.5713C0 39.9026 1.07931 40.982 2.41071 40.982H3.24743C3.22097 40.7165 3.20742 40.4475 3.20742 40.1749C3.20742 35.735 6.80667 32.1359 11.2465 32.1359C15.6864 32.1359 19.2856 35.735 19.2856 40.1749C19.2856 40.4475 19.2721 40.7165 19.2457 40.982H25.7474ZM6.42176 40.1749C6.42176 42.8399 8.58192 44.9999 11.2466 44.9999C13.9113 44.9999 16.0714 42.8399 16.0714 40.1749C16.0714 37.5103 13.9113 35.3503 11.2466 35.3503C8.58192 35.3503 6.42176 37.5103 6.42176 40.1749ZM28.9218 40.1749C28.9218 42.8395 31.0819 44.9999 33.7465 44.9999C36.4114 44.9999 38.5714 42.8395 38.5714 40.1749C38.5714 37.5103 36.4114 35.3503 33.7465 35.3503C31.0819 35.3503 28.9218 37.5103 28.9218 40.1749Z" fill="black"/>
</svg>
